<svg width="21" height="21" viewBox="0 0 21 21" fill="none" xmlns="http://www.w3.org/2000/svg">
<path d="M19.781 9.37023L17.5454 8.70291C17.3909 8.16326 17.1783 7.64194 16.9115 7.14806L18.0059 5.09939C18.047 5.02206 18.062 4.93355 18.0488 4.847C18.0355 4.76045 17.9948 4.68046 17.9325 4.61892L16.3376 3.01736C16.2761 2.95508 16.1961 2.9143 16.1095 2.90107C16.023 2.88785 15.9345 2.90289 15.8571 2.94395L13.8218 4.03168C13.3231 3.75185 12.7949 3.52805 12.2469 3.36436L11.5796 1.15554C11.5514 1.07414 11.4981 1.00379 11.4273 0.954624C11.3566 0.905458 11.272 0.880008 11.1859 0.881938H8.93035C8.8437 0.882342 8.75943 0.910389 8.68982 0.961998C8.6202 1.01361 8.56888 1.08609 8.54331 1.16889L7.87599 3.37104C7.32346 3.53385 6.79077 3.75767 6.28777 4.03836L4.28581 2.9573C4.20848 2.91623 4.11997 2.9012 4.03342 2.91442C3.94687 2.92764 3.86689 2.96842 3.80534 3.0307L2.18376 4.61225C2.12148 4.67379 2.0807 4.75377 2.06748 4.84033C2.05425 4.92688 2.06929 5.01539 2.11035 5.09272L3.19141 7.09468C2.91118 7.59556 2.68737 8.12599 2.52409 8.67622L0.315267 9.34354C0.232469 9.36911 0.15999 9.42044 0.108381 9.49005C0.0567711 9.55966 0.0287238 9.64393 0.0283203 9.73059V11.9861C0.0287238 12.0728 0.0567711 12.157 0.108381 12.2267C0.15999 12.2963 0.232469 12.3476 0.315267 12.3732L2.53744 13.0405C2.7025 13.5816 2.92627 14.1029 3.20476 14.5953L2.11035 16.6907C2.06929 16.768 2.05425 16.8566 2.06748 16.9431C2.0807 17.0297 2.12148 17.1096 2.18376 17.1712L3.77865 18.7661C3.84019 18.8284 3.92018 18.8691 4.00673 18.8824C4.09328 18.8956 4.18179 18.8805 4.25912 18.8395L6.32114 17.7384C6.80892 18.0016 7.32346 18.2119 7.85597 18.3657L8.52329 20.6146C8.54886 20.6974 8.60018 20.7698 8.6698 20.8214C8.73941 20.873 8.82368 20.9011 8.91033 20.9015H11.1659C11.2525 20.9011 11.3368 20.873 11.4064 20.8214C11.476 20.7698 11.5273 20.6974 11.5529 20.6146L12.2202 18.359C12.7482 18.2044 13.2582 17.9942 13.7417 17.7317L15.8171 18.8395C15.8944 18.8805 15.9829 18.8956 16.0695 18.8824C16.156 18.8691 16.236 18.8284 16.2976 18.7661L17.8924 17.1712C17.9547 17.1096 17.9955 17.0297 18.0087 16.9431C18.022 16.8566 18.0069 16.768 17.9659 16.6907L16.8581 14.622C17.1233 14.1367 17.3358 13.6244 17.4921 13.0939L19.7409 12.4266C19.8237 12.401 19.8962 12.3497 19.9478 12.28C19.9994 12.2104 20.0275 12.1262 20.0279 12.0395V9.76395C20.0318 9.68097 20.0103 9.59877 19.9661 9.52839C19.922 9.45801 19.8574 9.40282 19.781 9.37023ZM10.0581 14.562C9.33221 14.562 8.62261 14.3467 8.01904 13.9434C7.41547 13.5401 6.94504 12.9669 6.66725 12.2963C6.38946 11.6256 6.31677 10.8876 6.45839 10.1757C6.60001 9.46373 6.94957 8.80975 7.46286 8.29646C7.97615 7.78316 8.63013 7.43361 9.34209 7.29199C10.0541 7.15037 10.792 7.22306 11.4627 7.50085C12.1333 7.77864 12.7065 8.24907 13.1098 8.85264C13.5131 9.45621 13.7284 10.1658 13.7284 10.8917C13.7284 11.8651 13.3417 12.7987 12.6534 13.487C11.9651 14.1753 11.0315 14.562 10.0581 14.562Z" fill="black" fill-opacity="0.5"/>
</svg>
