<svg width="21" height="15" viewBox="0 0 21 15" fill="none" xmlns="http://www.w3.org/2000/svg">
<path fill-rule="evenodd" clip-rule="evenodd" d="M10.0289 3.58531C12.9307 3.58544 15.7216 4.70044 17.8246 6.69987C17.983 6.85423 18.2361 6.85228 18.3921 6.6955L19.906 5.16769C19.9849 5.08817 20.029 4.98046 20.0283 4.86838C20.0277 4.75631 19.9824 4.64912 19.9025 4.57053C14.3826 -0.719474 5.67429 -0.719474 0.154394 4.57053C0.0744348 4.64906 0.0290668 4.75622 0.0283294 4.86829C0.0275921 4.98037 0.0715463 5.08811 0.150466 5.16769L1.66475 6.6955C1.82062 6.85252 2.07395 6.85447 2.23222 6.69987C4.33556 4.70031 7.12675 3.5853 10.0289 3.58531ZM10.0302 8.55589C11.6246 8.55579 13.162 9.14841 14.3439 10.2186C14.5037 10.3705 14.7555 10.3672 14.9113 10.2112L16.4234 8.68335C16.5031 8.60321 16.5472 8.4945 16.5461 8.38153C16.5449 8.26856 16.4986 8.16077 16.4173 8.08227C12.8184 4.73455 7.24503 4.73455 3.64611 8.08227C3.56482 8.16077 3.51844 8.26862 3.51737 8.38162C3.5163 8.49462 3.56064 8.60333 3.64044 8.68335L5.1521 10.2112C5.30792 10.3672 5.55972 10.3705 5.71957 10.2186C6.90062 9.14911 8.43687 8.55655 10.0302 8.55589ZM13.0579 11.9004C13.0602 12.0137 13.0157 12.1229 12.9348 12.2022L10.3192 14.8419C10.2426 14.9194 10.138 14.9631 10.0289 14.9631C9.91987 14.9631 9.81533 14.9194 9.73866 14.8419L7.1226 12.2022C7.04179 12.1228 6.99733 12.0136 6.99973 11.9003C7.00213 11.787 7.05116 11.6797 7.13526 11.6038C8.80569 10.1909 11.2522 10.1909 12.9226 11.6038C13.0067 11.6798 13.0556 11.7871 13.0579 11.9004Z" fill="black"/>
</svg>
